<svg xmlns="http://www.w3.org/2000/svg" x="0px" y="0px" width="100" height="100" viewBox="0 0 64 64">
    <path fill="#060000"
        d="M32,10c12.131,0,22,9.869,22,22s-9.869,22-22,22s-22-9.869-22-22S19.869,10,32,10z M25,40.66	c0-2.847,0-9.474,0-12.321C25,27.6,24.4,27,23.661,27c-0.425,0-0.896,0-1.321,0C21.6,27,21,27.6,21,28.339c0,2.847,0,9.474,0,12.321	C21,41.4,21.6,42,22.339,42c0.425,0,0.896,0,1.321,0C24.4,42,25,41.4,25,40.66z M23,24c1.104,0,2-0.896,2-2c0-1.104-0.896-2-2-2	s-2,0.896-2,2C21,23.104,21.896,24,23,24z M44,40.679c0-2.388,0-7.179,0-7.179c0-3.59-2.91-6.5-6.5-6.5	c-1.748,0-3.332,0.694-4.5,1.816v-0.495C33,27.592,32.408,27,31.679,27c-0.436,0-0.921,0-1.357,0C29.592,27,29,27.592,29,28.321	c0,2.843,0,9.514,0,12.357C29,41.408,29.592,42,30.321,42c0.436,0,0.921,0,1.357,0C32.408,42,33,41.408,33,40.679	c0-2.153,0-6.179,0-6.179c0-1.925,1.575-3.5,3.5-3.5s3.5,1.575,3.5,3.5v6.179C40,41.408,40.592,42,41.321,42	c0.436,0,0.921,0,1.357,0C43.408,42,44,41.408,44,40.679z">
    </path>
</svg>